# xmcd
#
# Track frame offsets: 
#        150
#        13912
#        30030
#        44622
#        59060
#        75280
#        90677
#        102650
#        119067
#        134320
#
# Disc length: 2015 seconds
#
# Revision: 5
# Processed by: cddbd v1.5.2PL0 Copyright (c) Steve Scherf et al.
# Submitted via: ExactAudioCopy v1.0b1
#
DISCID=8407dd0a
DTITLE=Ricochet - Ricochet
DYEAR=1996
DGENRE=Country
TTITLE0=Daddy's money
TTITLE1=What do I know
TTITLE2=I can't dance
TTITLE3=Love is stronger than pride
TTITLE4=Ease my troubled mind
TTITLE5=A little bit of love (is a dangerous thing)
TTITLE6=From good to bad to worse to gone
TTITLE7=The truth is I lied
TTITLE8=I wasn't ready for you
TTITLE9=Rowdy
EXTD=
EXTT0=
EXTT1=
EXTT2=
EXTT3=
EXTT4=
EXTT5=
EXTT6=
EXTT7=
EXTT8=
EXTT9=
PLAYORDER=
